<?xml version="1.0" encoding="UTF-8" standalone="no"?>
<!DOCTYPE svg PUBLIC "-//W3C//DTD SVG 1.1//EN" "http://www.w3.org/Graphics/SVG/1.1/DTD/svg11.dtd">
<svg width="100%" height="100%" viewBox="0 0 2732 2048" version="1.1" xmlns="http://www.w3.org/2000/svg" xmlns:xlink="http://www.w3.org/1999/xlink" xml:space="preserve" xmlns:serif="http://www.serif.com/" style="fill-rule:evenodd;clip-rule:evenodd;stroke-linecap:round;stroke-linejoin:round;stroke-miterlimit:1.5;">
    <g transform="matrix(1,0,0,1,420,-210)">
        <path d="M700,770L840,840L840,910C840,948.634 808.634,980 770,980C731.366,980 700,948.634 700,910L700,770Z"/>
    </g>
    <g transform="matrix(1,0,0,1,-140,-560)">
        <path d="M1508.7,1322.6C1485.76,1311.12 1470,1287.38 1470,1260C1470,1221.37 1501.37,1190 1540,1190C1578.63,1190 1610,1221.37 1610,1260L1540,1260L1508.7,1322.6Z"/>
    </g>
    <g transform="matrix(1,0,0,1,-140,-140)">
        <path d="M1508.7,1322.6C1485.76,1311.12 1470,1287.38 1470,1260C1470,1221.37 1501.37,1190 1540,1190C1578.63,1190 1610,1221.37 1610,1260L1540,1260L1508.7,1322.6Z"/>
    </g>
    <g id="Layer3">
        <g transform="matrix(1,0,0,1,-822.5,219)">
            <path d="M1120,857.5L1155,822.5L1085,822.5L1120,857.5Z" style="fill:white;stroke:white;stroke-width:1px;"/>
        </g>
        <g transform="matrix(1,0,0,1,-402.5,-542.5)">
            <path d="M560,787.5L560,822.5L595,805L560,787.5Z" style="fill:white;stroke:white;stroke-width:1px;"/>
        </g>
        <g transform="matrix(1,0,0,1,892.5,-752.5)">
            <path d="M629.834,1172.42L663.461,1172.47C664.467,1175.21 665,1178.17 665,1181.25C665,1195.74 653.238,1207.5 638.75,1207.5C635.683,1207.5 632.738,1206.97 630,1206L630,1242.5C630,1281.13 598.634,1312.5 560,1312.5C521.366,1312.5 490,1281.13 490,1242.5L490,1206C487.262,1206.97 484.317,1207.5 481.25,1207.5C466.762,1207.5 455,1195.74 455,1181.25C455,1178.05 455.576,1174.97 456.659,1172.14L490,1172.2L490,1102.5L629.834,1172.42ZM595,1225L584.744,1235.26C591.079,1241.59 595,1250.34 595,1260C595,1279.32 579.317,1295 560,1295C540.683,1295 525,1279.32 525,1260C525,1250.34 528.921,1241.59 535.256,1235.26L525,1225L595,1225ZM577.919,1242.08C582.507,1246.67 585.346,1253.01 585.346,1260C585.346,1273.99 573.989,1285.35 560,1285.35C546.011,1285.35 534.654,1273.99 534.654,1260C534.654,1253.01 537.493,1246.67 542.081,1242.08L560,1260L577.919,1242.08ZM525,1155L542.5,1190L507.5,1190L525,1155ZM595,1120L630,1137.5L630,1102.5L595,1120Z"/>
        </g>
        <g transform="matrix(1,0,0,1,630,-122.5)">
            <path d="M629.834,1172.42L663.461,1172.47C664.467,1175.21 665,1178.17 665,1181.25C665,1195.74 653.238,1207.5 638.75,1207.5C635.683,1207.5 632.738,1206.97 630,1206L630,1242.5C630,1281.13 598.634,1312.5 560,1312.5C521.366,1312.5 490,1281.13 490,1242.5L490,1206C487.262,1206.97 484.317,1207.5 481.25,1207.5C466.762,1207.5 455,1195.74 455,1181.25C455,1178.05 455.576,1174.97 456.659,1172.14L490,1172.2L490,1102.5L629.834,1172.42ZM595,1225L584.744,1235.26C591.079,1241.59 595,1250.34 595,1260C595,1279.32 579.317,1295 560,1295C540.683,1295 525,1279.32 525,1260C525,1250.34 528.921,1241.59 535.256,1235.26L525,1225L595,1225ZM577.919,1242.08C582.507,1246.67 585.346,1253.01 585.346,1260C585.346,1273.99 573.989,1285.35 560,1285.35C546.011,1285.35 534.654,1273.99 534.654,1260C534.654,1253.01 537.493,1246.67 542.081,1242.08L560,1260L577.919,1242.08ZM525,1155L542.5,1190L507.5,1190L525,1155ZM595,1120L630,1137.5L630,1102.5L595,1120Z"/>
        </g>
    </g>
    <g transform="matrix(1,0,0,1,-402.5,210)">
        <path d="M2012.5,525C2012.5,544.317 1996.82,560 1977.5,560C1958.18,560 1942.5,544.317 1942.5,525L1942.5,525C1942.5,525 1942.5,385 1942.5,385L2012.5,350L2012.5,525Z" style="stroke:black;stroke-width:1px;"/>
    </g>
    <g transform="matrix(1,0,0,1,-402.5,630)">
        <path d="M2012.5,525C2012.5,544.317 1996.82,560 1977.5,560C1958.18,560 1942.5,544.317 1942.5,525L1942.5,525C1942.5,525 1942.5,385 1942.5,385L2012.5,350L2012.5,525Z" style="stroke:black;stroke-width:1px;"/>
    </g>
    <g transform="matrix(1,0,0,1,-402.5,210)">
        <path d="M2082.5,420L2152.5,455L2152.5,525C2152.5,544.317 2136.82,560 2117.5,560C2098.18,560 2082.5,544.317 2082.5,525L2082.5,420Z"/>
    </g>
    <g transform="matrix(1,0,0,1,-402.5,630)">
        <path d="M2082.5,420L2152.5,455L2152.5,525C2152.5,544.317 2136.82,560 2117.5,560C2098.18,560 2082.5,544.317 2082.5,525L2082.5,420Z"/>
    </g>
    <g transform="matrix(1,0,0,1,-490,227.5)">
        <path d="M2170,367.274C2170.12,348.061 2185.76,332.5 2205,332.5C2224.32,332.5 2240,348.183 2240,367.5L2240,402.5L2170,367.5L2170,367.274Z"/>
    </g>
    <g transform="matrix(1,0,0,1,-490,647.5)">
        <path d="M2170,367.274C2170.12,348.061 2185.76,332.5 2205,332.5C2224.32,332.5 2240,348.183 2240,367.5L2240,402.5L2170,367.5L2170,367.274Z"/>
    </g>
</svg>
