<svg id="Layer_1" data-name="Layer 1" xmlns="http://www.w3.org/2000/svg" viewBox="0 0 234.47 136.9"><defs><style>.cls-1{stroke:#000;stroke-linecap:round;stroke-linejoin:round;stroke-width:0.29px;fill-rule:evenodd;}</style></defs><title>logo</title><path class="cls-1" d="M235.61,455.66l-18.7-34.15L197.39,402l-9.75,9.76-4.88,14.63-24.4,29.28L173,387.35l-19.51-14.63-34.16,6.84-4.88-11.72,4.88-4.88,7.72-14.64,2-9.75,4.88-4.88-9.76-9.76,14.64,4.88-2.5-9.76,19.51,14.64,12.26-4.88L166,333.69h11.87L212,323.93l48.79,9.76,39-9.76,29.27,4.88,19.52,35.78L329.12,346,321.8,377.6l7.32,19.51L334,455.66l-15.45-41.11-18.7,41.11v-39l-12.51-24.4-26.52,14.64-34.15-9.76Z" transform="translate(-114.31 -318.91)"/></svg>