<svg id="Layer_1" data-name="Layer 1" xmlns="http://www.w3.org/2000/svg" viewBox="0 0 238.93 282.46"><defs><style>.cls-1{stroke:#000;stroke-linecap:round;stroke-linejoin:round;stroke-width:0.29px;fill-rule:evenodd;}.cls-2{isolation:isolate;font-size:142.13px;font-family:RedHatDisplay-ExtraBoldItalic, Red Hat Display;font-weight:800;font-style:italic;}</style></defs><title>logotext</title><path class="cls-1" d="M288.61,364.66l-18.7-34.15L250.39,311l-9.75,9.76-4.88,14.63-24.4,29.28L226,296.35l-19.51-14.63-34.16,6.84-4.88-11.72,4.88-4.88,7.72-14.64,2-9.75,4.88-4.88-9.76-9.76,14.64,4.88-2.5-9.76,19.51,14.64,12.26-4.88L219,242.69h11.87L265,232.93l48.79,9.76,39-9.76,29.27,4.88,19.52,35.78L382.12,255,374.8,286.6l7.32,19.51L387,364.66l-15.45-41.11-18.7,41.11v-39l-12.51-24.4-26.52,14.64-34.15-9.76Z" transform="translate(-162.85 -227.91)"/><text class="cls-2" transform="translate(0 246.36)">ueli</text></svg>