<?xml version="1.0" encoding="UTF-8" standalone="no"?>
<!DOCTYPE svg PUBLIC "-//W3C//DTD SVG 1.1//EN" "http://www.w3.org/Graphics/SVG/1.1/DTD/svg11.dtd">
<svg width="100%" height="100%" viewBox="0 0 375 336" version="1.1" xmlns="http://www.w3.org/2000/svg" xmlns:xlink="http://www.w3.org/1999/xlink" xml:space="preserve" xmlns:serif="http://www.serif.com/" style="fill-rule:evenodd;clip-rule:evenodd;stroke-linejoin:round;stroke-miterlimit:2;">
    <g id="Artboard1" transform="matrix(1,0,0,1,-661.246,-91.6896)">
        <rect x="661.246" y="91.69" width="374.565" height="335.935" style="fill:none;"/>
        <g transform="matrix(1,0,0,1,280.246,-961.811)">
            <g id="Layer3">
                <path d="M629.834,1172.42L663.461,1172.47C664.467,1175.21 665,1178.17 665,1181.25C665,1195.74 653.238,1207.5 638.75,1207.5C635.683,1207.5 632.738,1206.97 630,1206L630,1242.5C630,1281.13 598.634,1312.5 560,1312.5C521.366,1312.5 490,1281.13 490,1242.5L490,1206C487.262,1206.97 484.317,1207.5 481.25,1207.5C466.762,1207.5 455,1195.74 455,1181.25C455,1178.05 455.576,1174.97 456.659,1172.14L490,1172.2L490,1102.5L629.834,1172.42ZM595,1225L584.744,1235.26C591.079,1241.59 595,1250.34 595,1260C595,1279.32 579.317,1295 560,1295C540.683,1295 525,1279.32 525,1260C525,1250.34 528.921,1241.59 535.256,1235.26L525,1225L595,1225ZM577.919,1242.08C582.507,1246.67 585.346,1253.01 585.346,1260C585.346,1273.99 573.989,1285.35 560,1285.35C546.011,1285.35 534.654,1273.99 534.654,1260C534.654,1253.01 537.493,1246.67 542.081,1242.08L560,1260L577.919,1242.08ZM525,1155L542.5,1190L507.5,1190L525,1155ZM595,1120L630,1137.5L630,1102.5L595,1120Z"/>
            </g>
        </g>
    </g>
</svg>
